<svg preserveAspectRatio="none" overflow="visible" style="display: block;" width="31" height="30.5908" viewBox="0 0 31 30.5908" fill="none" xmlns="http://www.w3.org/2000/svg">
<g id="Group">
<path id="Vector" d="M30.8868 15.0585L24.9327 2.69171C24.6685 2.14088 24.0223 1.88944 23.4501 2.10616C22.6131 2.40554 21.9193 2.58746 21.2603 2.6785C19.3912 2.93452 17.3967 2.53986 15.6449 1.56854C13.4509 0.306818 10.9619 -0.209289 8.44267 0.0768818C6.24832 0.32401 4.21041 1.16093 2.4977 2.50937L2.18545 1.85895C2.16909 1.82124 2.1471 1.78623 2.12024 1.75512C2.16826 1.63375 2.194 1.4991 2.194 1.35622C2.194 0.753393 1.70407 0.259137 1.097 0.259137C0.494256 0.259137 0 0.749074 0 1.35614C0 1.86335 0.347063 2.29273 0.81515 2.4141C0.823788 2.44027 0.837 2.47042 0.849873 2.4965L14.162 30.1742C14.2877 30.4389 14.5524 30.5908 14.8256 30.5908C14.9338 30.5908 15.0423 30.5689 15.1462 30.517C15.515 30.339 15.6665 29.9009 15.4933 29.5325L9.47454 17.0312C12.7832 14.2822 17.4272 13.8702 21.1953 16.0427C22.5527 16.8188 24.0963 17.2873 25.6571 17.3955C25.8914 17.413 26.1212 17.4173 26.3555 17.4173C27.6864 17.4173 29.0266 17.1616 30.2578 16.6627C30.5616 16.5413 30.7998 16.2942 30.9169 15.9951C31.0383 15.6871 31.0253 15.3447 30.8868 15.0585ZM26.186 15.9474L24.2915 11.9666C24.3953 11.971 24.4995 11.971 24.6034 11.971C25.6008 11.971 26.5983 11.8148 27.5477 11.5157L29.4209 15.4053C28.3671 15.787 27.2744 15.969 26.186 15.9474ZM17.1192 13.2373L15.2242 9.26085C16.7896 9.39551 18.3418 9.86359 19.7687 10.6831C19.7988 10.7006 19.825 10.7135 19.8554 10.7311L21.7242 14.6463C20.2845 13.8574 18.7236 13.3802 17.1192 13.2373ZM8.5769 5.50997C10.0135 5.00714 11.5388 4.80787 13.0563 4.92476L15.077 9.16125C13.5601 9.05288 12.0371 9.25658 10.6019 9.75976L8.5769 5.50997ZM14.9165 2.85212C14.9165 2.85212 14.9208 2.85212 14.9208 2.85644L14.9251 2.86067C15.4074 3.12747 15.9088 3.35796 16.4254 3.55022L17.7219 6.27321C16.2735 5.44086 14.6995 4.97235 13.1125 4.84235L11.5818 1.62944C12.7311 1.83752 13.8586 2.24514 14.9165 2.85212ZM17.9214 6.47697C19.1312 7.1274 20.4886 7.52206 21.8631 7.61302C21.9498 7.61767 22.0408 7.62199 22.1274 7.62623L24.1524 11.8757C22.6912 11.8062 21.2428 11.3986 19.9202 10.6615L17.9214 6.47697ZM21.4552 4.14001C22.1579 4.0444 22.8821 3.86248 23.723 3.57199L25.4232 7.10589C24.3788 7.44046 23.2843 7.59156 22.1883 7.55246L20.5968 4.21818C20.8873 4.20503 21.1735 4.17897 21.4553 4.14001M6.76426 1.90671L8.45977 5.45806C7.15768 5.92607 5.95462 6.63352 4.91266 7.54391L3.14813 3.87112C4.23217 2.96493 5.46358 2.30561 6.76443 1.90663M7.02909 11.9494C8.08281 11.0214 9.28398 10.3277 10.5587 9.86783L12.4146 13.7573C11.1137 14.1739 9.89969 14.82 8.81556 15.6655L7.02909 11.9494Z" fill="#02D2E3"/>
</g>
</svg>
