<svg preserveAspectRatio="none" overflow="visible" style="display: block;" width="16" height="13.6722" viewBox="0 0 16 13.6722" fill="none" xmlns="http://www.w3.org/2000/svg">
<g id="Group">
<path id="Vector" d="M15.957 3.95848C15.9312 3.90257 15.8947 3.85228 15.8495 3.81049C15.8043 3.76869 15.7513 3.73621 15.6936 3.71489L10.9127 1.94973L11.4001 0.631452C11.4899 0.388639 11.3658 0.119014 11.123 0.0292332C10.8802 -0.0605793 10.6106 0.0635144 10.5208 0.306358L8 7.1243L5.47919 0.306327C5.38941 0.0635145 5.11978 -0.0605481 4.87697 0.0292019C4.63413 0.118983 4.5101 0.388608 4.59985 0.631421L5.08725 1.9497L0.306409 3.71486C0.248657 3.73617 0.19567 3.76866 0.150474 3.81045C0.105277 3.85225 0.0687576 3.90254 0.043 3.95845C0.0172424 4.01436 0.0027516 4.0748 0.00035526 4.13631C-0.00204108 4.19782 0.00770399 4.25921 0.0290339 4.31695L1.95841 9.54242C1.9916 9.63232 2.05154 9.70988 2.13016 9.76466C2.20878 9.81945 2.3023 9.84882 2.39813 9.84883C2.45303 9.84883 2.508 9.83917 2.5605 9.8198L7.34403 8.05355L7.50022 8.47601L5.81247 13.0408C5.72269 13.2836 5.84675 13.5532 6.0896 13.643C6.14319 13.6628 6.1981 13.6722 6.2521 13.6722C6.44269 13.6722 6.62188 13.5551 6.69181 13.3659L8 9.82773L9.30819 13.3659C9.37816 13.5552 9.55732 13.6722 9.74791 13.6722C9.80188 13.6722 9.85682 13.6628 9.91041 13.643C10.1533 13.5532 10.2773 13.2836 10.1875 13.0408L8.49978 8.47601L8.65597 8.05355L13.4395 9.8198C13.4972 9.84112 13.5586 9.85086 13.6201 9.84847C13.6817 9.84607 13.7421 9.83158 13.798 9.80583C13.9109 9.75381 13.9985 9.65907 14.0416 9.54245L15.971 4.31698C15.9923 4.25924 16.002 4.19786 15.9996 4.13634C15.9972 4.07483 15.9828 4.0144 15.957 3.95848ZM14.2892 6.16526L12.5559 5.5253L13.1959 3.79208L14.9292 4.43201L14.2892 6.16526ZM12.3164 3.46733L11.6765 5.20055L9.94691 4.56195L10.5876 2.82905L12.3164 3.46733ZM6.05306 4.56195L4.3235 5.20055L3.68357 3.46733L5.41235 2.82905L6.05306 4.56195ZM2.80413 3.79205L3.44407 5.52526L1.71078 6.16523L1.07082 4.43198L2.80413 3.79205ZM2.03553 7.0447L3.76882 6.40473L4.40878 8.13798L2.67553 8.77798L2.03553 7.0447ZM5.28822 7.81326L4.64825 6.08001L6.37819 5.44126L7.01891 7.17423L5.28822 7.81326ZM9.62182 5.44126L11.3518 6.08001L10.7118 7.81326L8.98107 7.17423L9.62182 5.44126ZM13.3245 8.77798L11.5913 8.13798L12.2312 6.40473L13.9645 7.0447L13.3245 8.77798Z" fill="black"/>
</g>
</svg>
